<svg width="65" height="66" viewBox="0 0 65 66" fill="none" xmlns="http://www.w3.org/2000/svg">
<path d="M50.7812 26.9062C50.7812 22.0578 48.8552 17.4079 45.4268 13.9795C41.9984 10.5511 37.3485 8.625 32.5 8.625C27.6515 8.625 23.0016 10.5511 19.5732 13.9795C16.1448 17.4079 14.2188 22.0578 14.2188 26.9062C14.2188 34.4056 20.2191 44.18 32.5 55.8881C44.7809 44.18 50.7812 34.4056 50.7812 26.9062ZM32.5 61.4375C17.6028 47.8972 10.1562 36.3841 10.1562 26.9062C10.1562 20.9803 12.5103 15.2971 16.7006 11.1068C20.8908 6.91657 26.5741 4.5625 32.5 4.5625C38.4259 4.5625 44.1092 6.91657 48.2994 11.1068C52.4897 15.2971 54.8438 20.9803 54.8438 26.9062C54.8438 36.3841 47.3972 47.8972 32.5 61.4375Z" fill="#E01600"/>
<path d="M32.5 28.9375C33.5774 28.9375 34.6108 28.5095 35.3726 27.7476C36.1345 26.9858 36.5625 25.9524 36.5625 24.875C36.5625 23.7976 36.1345 22.7642 35.3726 22.0024C34.6108 21.2405 33.5774 20.8125 32.5 20.8125C31.4226 20.8125 30.3892 21.2405 29.6274 22.0024C28.8655 22.7642 28.4375 23.7976 28.4375 24.875C28.4375 25.9524 28.8655 26.9858 29.6274 27.7476C30.3892 28.5095 31.4226 28.9375 32.5 28.9375ZM32.5 33C30.3451 33 28.2785 32.144 26.7548 30.6202C25.231 29.0965 24.375 27.0299 24.375 24.875C24.375 22.7201 25.231 20.6535 26.7548 19.1298C28.2785 17.606 30.3451 16.75 32.5 16.75C34.6549 16.75 36.7215 17.606 38.2452 19.1298C39.769 20.6535 40.625 22.7201 40.625 24.875C40.625 27.0299 39.769 29.0965 38.2452 30.6202C36.7215 32.144 34.6549 33 32.5 33ZM54.4375 45.1875L60.9375 61.4375H42.6562V57.375H22.3438V61.4375H4.0625L10.5625 45.1875H54.4375ZM50.0622 45.1875H14.9378L10.0628 57.375H54.9372L50.0622 45.1875Z" fill="#E01600"/>
</svg>
