<svg width="65" height="66" viewBox="0 0 65 66" fill="none" xmlns="http://www.w3.org/2000/svg">
<path d="M63.0803 24.7301L54.8385 17.7407V10.2589C54.8385 9.26348 54.0358 8.45003 53.0297 8.45003H43.846C43.8031 8.40715 36.011 1.79244 36.011 1.79244C33.9773 0.0691856 31.0232 0.0691856 28.9895 1.79244L21.133 8.45003H11.9708C10.9754 8.45003 10.162 9.25288 10.162 10.2589V17.7407L1.90961 24.7301C0.710884 25.7576 0.00439453 27.2668 0.00439453 28.8723V28.8831V60.0625C0.00439453 63.0595 2.44474 65.4998 5.44173 65.4998H59.5589C62.5559 65.4998 64.9963 63.0595 64.9963 60.0625V28.8723C64.9963 27.267 64.2898 25.7576 63.0803 24.7301ZM54.8278 22.4717L60.7362 27.481C61.1536 27.8342 61.3784 28.3266 61.3784 28.8725C61.3784 29.4184 61.143 29.9108 60.7362 30.2639L54.8278 35.2625V22.4717ZM31.3229 4.55399C31.9973 3.97599 33.0033 3.97599 33.6776 4.55399L38.2802 8.4608H26.7204L31.3229 4.55399ZM13.7797 12.0572H51.2206V38.3236L33.6776 53.1908C33.0033 53.7688 31.9971 53.7688 31.3121 53.1908L13.7797 38.3344V12.0572ZM3.62211 28.8725C3.62211 28.3266 3.85755 27.8342 4.26436 27.481L10.1727 22.4717V35.2625L4.26436 30.2639C3.85755 29.9214 3.62211 29.4184 3.62211 28.8833V28.8725ZM3.61135 59.9021V53.2658C3.61135 53.2658 3.61135 52.7183 3.61135 51.7121C3.61135 50.7059 3.61135 50.0153 3.61135 50.0153V46.9828C3.61135 46.9828 3.61135 45.8242 3.61135 44.8182C3.61135 43.8228 3.61135 43.365 3.61135 43.365V34.4383L18.6284 47.1541L3.61135 59.9021ZM6.84378 61.9036L21.4221 49.5518L28.9787 55.9631C30.0063 56.8195 31.2479 57.2582 32.5003 57.2582C33.7526 57.2582 34.9942 56.8193 36.0218 55.9631L44.2207 49.0165L59.4305 61.9035L6.84378 61.9036ZM61.3892 58.8209L47.0036 46.6296L61.3892 34.4489V58.8209Z" fill="#E01600"/>
</svg>
