<svg width="65" height="66" viewBox="0 0 65 66" fill="none" xmlns="http://www.w3.org/2000/svg">
<path d="M38.0521 16.75C40.6976 17.2661 43.1286 18.5598 45.0344 20.4656C46.9403 22.3714 48.2341 24.8025 48.75 27.4479M38.0521 5.91663C43.5481 6.52719 48.6731 8.98834 52.5858 12.896C56.4983 16.8037 58.9661 21.9256 59.5833 27.4208M50.1042 57.375C26.9197 57.375 8.125 38.5802 8.125 15.3958C8.125 14.3498 8.16327 13.3127 8.23845 12.2859C8.32474 11.1075 8.36788 10.5183 8.67669 9.98192C8.93246 9.53769 9.38573 9.11641 9.84745 8.89376C10.4049 8.62496 11.0551 8.62496 12.3554 8.62496H19.9857C21.0792 8.62496 21.6259 8.62496 22.0946 8.80493C22.5087 8.96391 22.8773 9.22212 23.1682 9.5569C23.4975 9.93587 23.6844 10.4497 24.0581 11.4774L27.2163 20.1626C27.651 21.3583 27.8685 21.9561 27.8316 22.5233C27.7991 23.0235 27.6282 23.5048 27.3385 23.9137C27.0098 24.3774 26.4643 24.7047 25.3734 25.3593L21.6667 27.5833C24.9218 34.7574 30.7399 40.583 37.9167 43.8333L40.1408 40.1267C40.7954 39.0355 41.1225 38.49 41.5862 38.1615C41.9951 37.8717 42.4764 37.7008 42.9766 37.6683C43.5438 37.6315 44.1418 37.849 45.3375 38.2836L54.0226 41.4418C55.0501 41.8156 55.5642 42.0025 55.9431 42.3318C56.2778 42.6227 56.5362 42.9913 56.6949 43.4054C56.875 43.8739 56.875 44.4207 56.875 45.5144V53.1445C56.875 54.4448 56.875 55.0951 56.6061 55.6525C56.3834 56.1142 55.9623 56.5676 55.5181 56.8233C54.9816 57.132 54.3925 57.1751 53.2141 57.2615C52.1871 57.3368 51.1501 57.375 50.1042 57.375Z" stroke="#E01600" stroke-width="3.5" stroke-linecap="round" stroke-linejoin="round"/>
</svg>
